<svg width="20" height="20" viewBox="0 0 20 20" fill="none" xmlns="http://www.w3.org/2000/svg">
<path d="M6.73331 16.6667C7.96555 16.7079 9.19356 16.5017 10.3448 16.0602C11.496 15.6188 12.547 14.9511 13.4357 14.0965C14.3245 13.2419 15.0329 12.2179 15.5191 11.0849C16.0054 9.95189 16.2595 8.73291 16.2666 7.5C16.8313 6.80117 17.2507 5.99652 17.5 5.13333C17.5186 5.06513 17.5171 4.99301 17.4956 4.92564C17.4742 4.85828 17.4338 4.79854 17.3792 4.75363C17.3246 4.70872 17.2582 4.68056 17.1879 4.67252C17.1177 4.66448 17.0466 4.67692 16.9833 4.70833C16.6879 4.85054 16.3553 4.89648 16.0323 4.83967C15.7094 4.78286 15.4125 4.62616 15.1833 4.39166C14.8908 4.07131 14.5369 3.81294 14.1427 3.63185C13.7485 3.45077 13.3219 3.35065 12.8883 3.33744C12.4546 3.32423 12.0228 3.39819 11.6183 3.55494C11.2137 3.7117 10.8448 3.94805 10.5333 4.25C10.1068 4.66304 9.79441 5.1794 9.62648 5.74889C9.45856 6.31838 9.44081 6.92162 9.57497 7.5C6.78331 7.66666 4.86664 6.34166 3.33331 4.525C3.28724 4.47283 3.22699 4.43521 3.15989 4.41672C3.0928 4.39823 3.02178 4.39968 2.95549 4.42089C2.88921 4.4421 2.83054 4.48216 2.78665 4.53616C2.74275 4.59016 2.71553 4.65578 2.70831 4.725C2.4162 6.34535 2.62691 8.01629 3.31216 9.51339C3.9974 11.0105 5.12434 12.2621 6.54164 13.1C5.59134 14.1899 4.25681 14.8705 2.81664 15C2.73948 15.0128 2.66826 15.0494 2.61293 15.1047C2.55761 15.16 2.52095 15.2311 2.50809 15.3083C2.49524 15.3854 2.50682 15.4647 2.54123 15.5349C2.57563 15.6051 2.63114 15.6629 2.69997 15.7C3.95291 16.3261 5.33267 16.6568 6.73331 16.6667Z" fill="white"/>
</svg>
