<svg width="117" height="117" viewBox="0 0 117 117" fill="none" xmlns="http://www.w3.org/2000/svg">
<path d="M54.1281 8.18408C56.4701 6.17275 59.9298 6.17275 62.2717 8.18408L66.6894 11.9781C68.196 13.272 70.2279 13.7728 72.1633 13.3272L77.8381 12.0208C80.8465 11.3283 83.9099 12.9361 85.0489 15.8054L87.1974 21.2178C87.9301 23.0636 89.4966 24.4513 91.4173 24.9562L97.0492 26.4367C100.035 27.2215 102 30.0688 101.675 33.1388L101.062 38.9296C100.853 40.9046 101.596 42.8613 103.062 44.201L107.36 48.1291C109.639 50.2116 110.056 53.646 108.342 56.2134L105.108 61.0561C104.005 62.7077 103.753 64.7852 104.429 66.6527L106.41 72.1287C107.46 75.0317 106.233 78.2666 103.522 79.7431L98.4078 82.5283C96.6637 83.4782 95.4749 85.2005 95.2052 87.1681L94.4144 92.9374C93.9952 95.9959 91.4056 98.2901 88.3188 98.3376L82.4963 98.4272C80.5106 98.4578 78.6575 99.4303 77.5043 101.047L74.123 105.788C72.3304 108.301 68.9713 109.129 66.216 107.737L61.0188 105.111C59.2463 104.215 57.1536 104.215 55.3811 105.111L50.1838 107.737C47.4286 109.129 44.0694 108.301 42.2768 105.788L38.8955 101.047C37.7423 99.4303 35.8893 98.4578 33.9036 98.4272L28.081 98.3376C24.9943 98.2901 22.4047 95.9959 21.9854 92.9374L21.1946 87.1681C20.9249 85.2005 19.7361 83.4782 17.9921 82.5283L12.8781 79.7431C10.167 78.2666 8.94019 75.0317 9.99034 72.1287L11.9712 66.6527C12.6468 64.7852 12.3946 62.7077 11.2917 61.0561L8.05787 56.2134C6.3435 53.646 6.76053 50.2116 9.03948 48.1291L13.3383 44.201C14.8044 42.8613 15.5464 40.9046 15.3374 38.9296L14.7246 33.1388C14.3997 30.0688 16.365 27.2215 19.3507 26.4367L24.9826 24.9562C26.9033 24.4513 28.4697 23.0636 29.2025 21.2177L31.351 15.8054C32.49 12.9361 35.5534 11.3283 38.5618 12.0208L44.2366 13.3272C46.1719 13.7728 48.2038 13.272 49.7105 11.978L54.1281 8.18408Z" fill="#FBC800"/>
<path d="M48.1503 42.1561V50.1619L42.5256 42.1561H40.5569V55.2804H43.1443V47.2558L48.769 55.2804H50.7376V42.1561H48.1503ZM55.1034 51.5868H62.1718C62.228 51.2681 62.2655 50.9494 62.2655 50.5931C62.2655 47.837 60.2969 45.6434 57.522 45.6434C54.5784 45.6434 52.5723 47.7995 52.5723 50.5931C52.5723 53.3867 54.5596 55.5429 57.7095 55.5429C59.5094 55.5429 60.9156 54.8117 61.7968 53.5367L59.8469 52.4118C59.4344 52.9555 58.6844 53.3492 57.747 53.3492C56.4721 53.3492 55.4409 52.8243 55.1034 51.5868ZM55.0659 49.7119C55.3471 48.512 56.2283 47.8183 57.522 47.8183C58.5344 47.8183 59.5469 48.362 59.8469 49.7119H55.0659ZM74.1435 45.9059L72.5498 51.6806L70.8436 45.9059H68.5562L66.8501 51.6618L65.2564 45.9059H62.6878L65.6689 55.2804H67.975L69.6999 49.5994L71.4248 55.2804H73.731L76.7121 45.9059H74.1435ZM32.0486 73.8055V70.8619H37.0171V68.4245H32.0486V65.6309H37.4859V63.1561H29.4613V76.2804H37.5796V73.8055H32.0486ZM46.1954 63.1561V68.0121C45.5204 67.1496 44.5267 66.6434 43.158 66.6434C40.6457 66.6434 38.5833 68.7995 38.5833 71.5931C38.5833 74.3867 40.6457 76.5429 43.158 76.5429C44.5267 76.5429 45.5204 76.0367 46.1954 75.1742V76.2804H48.614V63.1561H46.1954ZM43.608 74.2368C42.1081 74.2368 41.0019 73.1681 41.0019 71.5931C41.0019 70.0182 42.1081 68.9495 43.608 68.9495C45.0892 68.9495 46.1954 70.0182 46.1954 71.5931C46.1954 73.1681 45.0892 74.2368 43.608 74.2368ZM52.0259 65.7809C52.8508 65.7809 53.5258 65.106 53.5258 64.2998C53.5258 63.4936 52.8508 62.7998 52.0259 62.7998C51.2197 62.7998 50.5447 63.4936 50.5447 64.2998C50.5447 65.106 51.2197 65.7809 52.0259 65.7809ZM50.826 76.2804H53.2446V66.9059H50.826V76.2804ZM60.8205 69.2308V66.9059H58.7019V64.281L56.2832 65.0122V66.9059H54.6521V69.2308H56.2832V73.1306C56.2832 75.6617 57.4269 76.6554 60.8205 76.2804V74.0868C59.4331 74.1618 58.7019 74.143 58.7019 73.1306V69.2308H60.8205ZM63.7257 65.7809C64.5507 65.7809 65.2257 65.106 65.2257 64.2998C65.2257 63.4936 64.5507 62.7998 63.7257 62.7998C62.9195 62.7998 62.2446 63.4936 62.2446 64.2998C62.2446 65.106 62.9195 65.7809 63.7257 65.7809ZM62.5258 76.2804H64.9444V66.9059H62.5258V76.2804ZM71.6204 76.5429C74.3765 76.5429 76.5889 74.3867 76.5889 71.5931C76.5889 68.7995 74.3765 66.6434 71.6204 66.6434C68.8643 66.6434 66.6706 68.7995 66.6706 71.5931C66.6706 74.3867 68.8643 76.5429 71.6204 76.5429ZM71.6204 74.1805C70.1955 74.1805 69.0893 73.1118 69.0893 71.5931C69.0893 70.0745 70.1955 69.0058 71.6204 69.0058C73.0641 69.0058 74.1703 70.0745 74.1703 71.5931C74.1703 73.1118 73.0641 74.1805 71.6204 74.1805ZM83.5026 66.6434C82.2464 66.6434 81.2715 67.1121 80.709 67.9558V66.9059H78.2904V76.2804H80.709V71.2182C80.709 69.587 81.5902 68.8933 82.7714 68.8933C83.8588 68.8933 84.6275 69.5495 84.6275 70.8244V76.2804H87.0462V70.5244C87.0462 68.0308 85.49 66.6434 83.5026 66.6434Z" fill="#232229"/>
<path d="M39.4873 8.58496L40.1787 8.74316V8.74414L40.1348 8.93457L40.8242 9.09375L40.8682 8.90332V8.90234L41.5576 9.06152L41.5146 9.25195L42.2041 9.41113L42.248 9.2207V9.21973L42.9385 9.37891V9.37988L42.8945 9.57031L43.2393 9.64941C43.3621 9.6777 43.4859 9.70173 43.6094 9.72266L43.6416 9.53027V9.5293C43.8833 9.57028 44.1258 9.59705 44.3682 9.60938V9.61035L44.3584 9.80566C44.6101 9.81845 44.8615 9.81637 45.1113 9.7998L45.0986 9.60449C45.3422 9.58834 45.584 9.55701 45.8232 9.5127L45.8242 9.51367L45.8594 9.70605C46.1065 9.66026 46.3507 9.59969 46.5908 9.52539L46.5332 9.33887L46.5322 9.33789C46.7623 9.26671 46.9889 9.18352 47.21 9.08594L47.2178 9.08203L47.2969 9.26074C47.5258 9.15928 47.7498 9.04435 47.9668 8.91602L47.8672 8.74805L47.8662 8.74707C48.0749 8.62366 48.2768 8.48732 48.4717 8.33887L48.4727 8.33984L48.5918 8.49512L48.8848 8.25781L49.1533 8.02734L49.0254 7.87891L49.0244 7.87793L49.5615 7.41699L49.5625 7.41797L49.6904 7.56641L50.2275 7.10449L50.0996 6.95703L50.0986 6.95605L50.6357 6.49414L50.6367 6.49512L50.7646 6.64355L51.3018 6.18262L51.1738 6.03418L51.1729 6.0332L51.7109 5.57227L51.8389 5.7207L52.376 5.25977L52.248 5.11133L52.7842 4.64941L52.7852 4.65039L52.9131 4.79785L53.4502 4.33691L53.3223 4.18848L53.8594 3.72754L53.9873 3.87598L54.2559 3.64551C54.347 3.56723 54.4397 3.49189 54.5342 3.41992L54.416 3.26562C54.6139 3.11484 54.818 2.9766 55.0283 2.85254L55.1279 3.02051C55.335 2.89841 55.5476 2.7897 55.7646 2.69434L55.6865 2.5166C55.9132 2.417 56.1443 2.33113 56.3789 2.25977L56.4355 2.44531C56.6646 2.37565 56.8975 2.3202 57.1318 2.27832L57.0967 2.08594C57.3398 2.04246 57.5852 2.01449 57.8311 2L57.8418 2.19434C58.08 2.18029 58.3194 2.1803 58.5576 2.19434L58.5684 2C58.8139 2.01444 59.0589 2.04259 59.3018 2.08594L59.2686 2.27832C59.5029 2.3202 59.7358 2.37565 59.9648 2.44531L60.0205 2.25977C60.2552 2.3311 60.4862 2.41702 60.7129 2.5166L60.6357 2.69434C60.8527 2.78969 61.0655 2.89843 61.2725 3.02051L61.3711 2.85254C61.5815 2.97658 61.7855 3.11485 61.9834 3.26562L61.8662 3.41992L62.1445 3.64551L62.4131 3.87598L62.5391 3.72754L63.0762 4.18848H63.0771L62.9502 4.33691L63.4873 4.79785L63.6143 4.65039V4.64941L64.1514 5.11035V5.11133L64.0244 5.25977L64.5615 5.7207L64.6885 5.57227V5.57129L65.2256 6.0332V6.03418L65.0986 6.18262L65.6357 6.64355L65.7627 6.49512V6.49414L66.2998 6.95605V6.95703L66.1729 7.10449L66.71 7.56641L66.8379 7.41797V7.41699L67.375 7.87793V7.87891L67.2471 8.02734L67.5156 8.25781C67.6112 8.33993 67.709 8.41923 67.8086 8.49512L67.9268 8.33984V8.33887C68.1218 8.48751 68.3244 8.62352 68.5332 8.74707V8.74805L68.4336 8.91602C68.6506 9.04437 68.8745 9.15927 69.1035 9.26074L69.1816 9.08203C69.4052 9.18113 69.6343 9.26583 69.8672 9.33789V9.33887L69.8096 9.52539C70.0496 9.59968 70.2939 9.66027 70.541 9.70605L70.5762 9.51367V9.5127C70.8154 9.55704 71.0572 9.5883 71.3008 9.60449L71.2891 9.7998C71.5389 9.81636 71.7903 9.81846 72.042 9.80566L72.0322 9.61035L72.0312 9.60938C72.2736 9.59708 72.5161 9.57024 72.7578 9.5293L72.7588 9.53027L72.791 9.72266L73.1611 9.64941L73.5059 9.57031L73.4619 9.37988L73.4609 9.37891L74.1514 9.21973L74.1523 9.2207L74.1953 9.41113L74.8857 9.25195L74.8418 9.06152L75.5312 8.90234L75.5322 8.90332L75.5752 9.09375L76.2656 8.93457L76.2217 8.74414L76.2207 8.74316L76.9121 8.58496L76.9551 8.77539L77.6455 8.61719L77.6016 8.42676L77.6006 8.42578L78.291 8.2666L78.292 8.26758L78.3359 8.45801L79.0254 8.29883L78.9814 8.1084L79.6709 7.94922L79.6719 7.9502L79.7158 8.14062L80.0605 8.06055C80.1776 8.03361 80.2951 8.01102 80.4121 7.99121L80.3789 7.79883C80.6242 7.75728 80.8693 7.73084 81.1133 7.71875L81.123 7.91309C81.3632 7.90119 81.6023 7.90349 81.8389 7.91992L81.8516 7.72656C82.0985 7.7437 82.3431 7.77448 82.584 7.82031L82.5479 8.01172C82.7831 8.05649 83.0152 8.11568 83.2422 8.1875L83.2998 8.00098C83.5353 8.07546 83.7657 8.1642 83.9902 8.26562L83.9102 8.44336C84.1276 8.54163 84.3395 8.65226 84.5439 8.77539L84.6436 8.60938C84.8544 8.73634 85.059 8.87407 85.2539 9.02539V9.02637L85.1348 9.18066C85.3227 9.32659 85.5025 9.48429 85.6729 9.65234L85.8086 9.5127C85.9831 9.68475 86.1474 9.8682 86.3018 10.0615L86.1514 10.1836C86.2992 10.3689 86.4369 10.5643 86.5635 10.7686L86.7285 10.666C86.857 10.8734 86.974 11.0901 87.0791 11.3154L86.9043 11.3984L87.0459 11.7275L87.1768 12.0566L87.3574 11.9844L87.6191 12.6416V12.6426L87.4375 12.7139L87.6992 13.3721L87.8799 13.2998L88.1416 13.957V13.958L87.96 14.0303L88.2217 14.6885L88.4023 14.6162L88.6641 15.2734V15.2744L88.4824 15.3467L88.7441 16.0049L88.9248 15.9326L89.1865 16.5898V16.5908L89.0049 16.6631L89.2666 17.3203L89.4482 17.249V17.248L89.709 17.9053V17.9062L89.5273 17.9785L89.6582 18.3076C89.7047 18.4248 89.7547 18.5408 89.8076 18.6543L89.9834 18.5713C90.0869 18.7934 90.2036 19.0076 90.3311 19.2139V19.2148L90.165 19.3174C90.2975 19.5318 90.4421 19.7374 90.5977 19.9336L90.75 19.8125C90.9016 20.0037 91.065 20.1848 91.2373 20.3564V20.3574L91.0996 20.4961C91.2777 20.6735 91.4665 20.8397 91.6641 20.9951L91.7842 20.8418V20.8408C91.9757 20.9916 92.1762 21.1311 92.3848 21.2588V21.2598L92.2822 21.4258C92.4959 21.5567 92.7183 21.6755 92.9473 21.7812L93.0283 21.6045V21.6035C93.2486 21.7052 93.4759 21.794 93.709 21.8701V21.8711L93.6484 22.0566L94.0098 22.1631L94.3525 22.2529L94.4014 22.0645V22.0635L95.0859 22.2441L95.0371 22.4326L95.7217 22.6133L95.7705 22.4238L96.4561 22.6035V22.6045L96.4062 22.793L97.0908 22.9727L97.1396 22.7842L97.8242 22.9639L97.7764 23.1533L98.4609 23.333L98.5098 23.1445L99.1943 23.3242L99.1455 23.5127L99.8301 23.6934L99.8789 23.5039L100.564 23.6836V23.6846L100.515 23.873L100.857 23.9629C100.974 23.9934 101.088 24.0276 101.201 24.0645L101.261 23.8799C101.497 23.957 101.727 24.0459 101.948 24.1484L101.867 24.3262C102.085 24.4272 102.295 24.5406 102.497 24.665L102.599 24.5C102.809 24.6298 103.011 24.7705 103.203 24.9229L103.083 25.0762C103.27 25.2251 103.449 25.3847 103.616 25.5537L103.754 25.416C103.928 25.5912 104.09 25.7768 104.241 25.9707L104.089 26.0908C104.236 26.2789 104.371 26.4756 104.495 26.6797L104.661 26.5781C104.789 26.7887 104.904 27.0067 105.007 27.2314L104.83 27.3125C104.929 27.5291 105.014 27.7524 105.087 27.9805L105.272 27.9209C105.347 28.1546 105.407 28.3936 105.454 28.6367L105.264 28.6738C105.308 28.9065 105.34 29.1431 105.357 29.3828L105.551 29.3691C105.568 29.6123 105.571 29.8583 105.56 30.1064L105.366 30.0986L105.339 30.4561L105.302 30.8076L105.495 30.8271L105.421 31.5322L105.227 31.5117L105.152 32.2158L105.347 32.2363L105.271 32.9395L105.078 32.9199L105.004 33.624L105.197 33.6445L105.123 34.3486L104.929 34.3281L104.854 35.0322L105.049 35.0527L104.974 35.7559L104.78 35.7363L104.705 36.4404L104.899 36.4609L104.825 37.165L104.631 37.1445L104.594 37.4961C104.58 37.6214 104.571 37.747 104.565 37.8721L104.76 37.8818C104.748 38.1262 104.752 38.3698 104.769 38.6113V38.6123L104.573 38.626C104.591 38.8775 104.623 39.1269 104.67 39.373L104.861 39.3369C104.907 39.5766 104.967 39.8129 105.04 40.0449V40.0459L104.854 40.1035C104.929 40.3433 105.017 40.5792 105.12 40.8086L105.299 40.7285V40.7275C105.398 40.9497 105.511 41.1663 105.636 41.376V41.377L105.468 41.4775C105.596 41.6927 105.738 41.9006 105.892 42.1006L106.046 41.9814V41.9805C106.194 42.173 106.353 42.3575 106.524 42.5332V42.5342L106.385 42.6699L106.655 42.9326L106.917 43.1709L107.049 43.0273V43.0264L107.571 43.5039V43.5049L107.439 43.6484L107.962 44.127L108.094 43.9824V43.9814L108.616 44.459V44.46L108.484 44.6045L109.007 45.082L109.139 44.9375V44.9365L109.661 45.415H109.662L109.53 45.5596L110.053 46.0371L110.184 45.8926L110.706 46.3701H110.707L110.575 46.5146L111.098 46.9922L111.229 46.8477L111.751 47.3252H111.752L111.62 47.4697L111.882 47.708C111.971 47.7891 112.057 47.8729 112.14 47.958L112.277 47.8223C112.451 48.0004 112.612 48.1862 112.761 48.3799L112.607 48.499C112.754 48.6898 112.887 48.8879 113.008 49.0918L113.174 48.9922C113.3 49.2055 113.413 49.4248 113.513 49.6494L113.335 49.7285C113.432 49.9474 113.515 50.171 113.585 50.3984L113.771 50.3418C113.843 50.5777 113.9 50.8174 113.944 51.0596L113.755 51.0938C113.798 51.3287 113.826 51.5664 113.841 51.8047L114.034 51.793C114.049 52.0382 114.051 52.2843 114.037 52.5303L113.843 52.5205C113.829 52.7581 113.802 52.9957 113.761 53.2314L113.952 53.2637C113.91 53.5054 113.852 53.7452 113.78 53.9824L113.595 53.9268C113.526 54.1537 113.444 54.3784 113.348 54.5986L113.526 54.6768C113.429 54.9005 113.315 55.1193 113.189 55.334L113.023 55.2363L112.833 55.54L112.637 55.834L112.798 55.9424L112.405 56.5312L112.243 56.4229L111.85 57.0117L112.012 57.1191L111.619 57.709L111.457 57.6006L111.063 58.1895L111.226 58.2979L110.832 58.8857L110.67 58.7783L110.277 59.3672L110.438 59.4746L110.046 60.0635L109.884 59.9561L109.491 60.5449L109.652 60.6523L109.259 61.2412L109.098 61.1338L108.901 61.4277C108.831 61.5325 108.764 61.6392 108.701 61.7471L108.868 61.8457C108.744 62.0571 108.635 62.275 108.537 62.4971L108.358 62.4189C108.257 62.6498 108.17 62.8855 108.097 63.125L108.283 63.1826C108.212 63.4161 108.155 63.6532 108.111 63.8926L107.919 63.8574C107.874 64.1047 107.844 64.3546 107.828 64.6055L108.022 64.6172C108.007 64.8574 108.008 65.0987 108.021 65.3398V65.3486L107.825 65.3594C107.839 65.6093 107.867 65.8591 107.91 66.1074L108.103 66.0742V66.0732C108.144 66.3124 108.2 66.5501 108.27 66.7852V66.7861L108.082 66.8418L108.2 67.1992L108.32 67.5322L108.504 67.4658V67.4648L108.745 68.1309V68.1318L108.562 68.1982L108.803 68.8643L108.985 68.7979L109.226 69.4629H109.227L109.043 69.5303L109.284 70.1953L109.467 70.1289L109.708 70.7949L109.525 70.8613L109.766 71.5273L109.949 71.4609V71.46L110.189 72.127H110.19L110.007 72.1934L110.247 72.8584L110.43 72.792L110.671 73.458H110.672L110.488 73.5244L110.608 73.8574C110.649 73.9704 110.687 74.0844 110.721 74.1982L110.906 74.1426C110.977 74.381 111.034 74.6207 111.075 74.8613L110.884 74.8945C110.925 75.1314 110.951 75.3688 110.963 75.6055L111.156 75.5957C111.169 75.8426 111.167 76.0887 111.15 76.333L110.957 76.3213C110.941 76.5601 110.911 76.7973 110.867 77.0312L111.058 77.0664C111.012 77.3091 110.952 77.5482 110.878 77.7832L110.693 77.7256C110.622 77.9534 110.537 78.1767 110.439 78.3945L110.616 78.4736C110.516 78.6982 110.402 78.9171 110.275 79.1289L110.108 79.0293C109.986 79.2335 109.852 79.4316 109.706 79.6211L109.859 79.7393C109.709 79.9334 109.547 80.1183 109.373 80.2949L109.235 80.1602C109.069 80.3291 108.893 80.4895 108.705 80.6396L108.826 80.791C108.635 80.9438 108.434 81.0861 108.223 81.2178L108.121 81.0537L107.812 81.2334L107.5 81.4033L107.594 81.5742L106.972 81.9131L106.879 81.7422L106.257 82.0801L106.35 82.251L105.728 82.5898L105.635 82.4189L105.014 82.7578L105.105 82.9287L104.484 83.2666L104.392 83.0967L103.77 83.4346L103.862 83.6055L103.24 83.9443L103.147 83.7734L102.526 84.1123L102.618 84.2832L101.998 84.6221L101.904 84.4512L101.594 84.6201C101.483 84.6804 101.374 84.7443 101.268 84.8105L101.371 84.9756C101.163 85.1052 100.964 85.2461 100.774 85.3975L100.652 85.2451C100.455 85.4025 100.269 85.5709 100.093 85.749L100.231 85.8867C100.06 86.0603 99.8977 86.2427 99.748 86.4346L99.5947 86.3154C99.4402 86.5135 99.2974 86.7208 99.167 86.9355L99.334 87.0371C99.2078 87.2449 99.0926 87.4598 98.9912 87.6816L98.8145 87.6016C98.7103 87.8294 98.6193 88.0637 98.542 88.3037L98.7275 88.3633C98.6532 88.594 98.5913 88.83 98.5439 89.0703L98.3525 89.0332L98.291 89.4053L98.2432 89.7559L98.4355 89.7812L98.3398 90.4834L98.1465 90.457L98.0508 91.1582L98.2432 91.1846L98.1475 91.8867L97.9541 91.8604L97.8584 92.5615L98.0508 92.5869L97.9551 93.2891L97.7617 93.2627L97.666 93.9639L97.8584 93.9902L97.7627 94.6914L97.5693 94.666L97.4736 95.3672L97.666 95.3926L97.5703 96.0938L97.377 96.0684L97.3291 96.4189C97.3128 96.5379 97.2935 96.6561 97.2705 96.7725L97.46 96.8096C97.4118 97.0536 97.3505 97.2921 97.2754 97.5244L97.0908 97.4658C97.0168 97.6944 96.9293 97.9166 96.8301 98.1318L97.0059 98.2129C96.9022 98.4377 96.7865 98.6553 96.6582 98.8643L96.4932 98.7627C96.3679 98.9667 96.2306 99.1629 96.083 99.3496L96.2354 99.4697C96.0821 99.6635 95.9177 99.8476 95.7432 100.021L95.6064 99.8838C95.4375 100.052 95.2589 100.211 95.0713 100.358L95.1904 100.511C94.9969 100.663 94.7947 100.804 94.584 100.933L94.4834 100.767C94.2803 100.891 94.0691 101.003 93.8516 101.103L93.9316 101.279C93.7087 101.381 93.4789 101.47 93.2432 101.546L93.1846 101.362C92.9588 101.435 92.7272 101.494 92.4912 101.54L92.5273 101.73C92.2878 101.777 92.0438 101.81 91.7959 101.828L91.7822 101.635L91.4238 101.651L91.0703 101.656L91.0723 101.851L90.3643 101.861L90.3623 101.667L89.6543 101.678L89.6572 101.873L88.9482 101.884L88.9463 101.689L88.2383 101.7L88.2402 101.895L87.5322 101.905L87.5303 101.711L86.8232 101.722L86.8252 101.916L86.1172 101.927L86.1152 101.732L85.4072 101.743L85.4102 101.938L84.7021 101.949L84.6992 101.755L84.3447 101.76C84.2188 101.762 84.0935 101.767 83.9688 101.776L83.9814 101.971C83.7376 101.989 83.4964 102.021 83.2588 102.067L83.2217 101.876C82.974 101.924 82.73 101.987 82.4912 102.062L82.5508 102.248C82.3178 102.322 82.0892 102.408 81.8672 102.509L81.7881 102.332C81.5591 102.436 81.3364 102.553 81.1211 102.683L81.2207 102.849C81.012 102.974 80.8104 103.112 80.6172 103.262L80.499 103.107C80.3009 103.261 80.1107 103.427 79.9307 103.604L80.0674 103.742C79.8943 103.912 79.7299 104.092 79.5762 104.283L79.4248 104.161L79.1973 104.462L78.9912 104.75L79.1504 104.863L78.7393 105.439L78.5801 105.326L78.1689 105.902L78.3281 106.017L77.917 106.593L77.7578 106.479L77.3467 107.056L77.5059 107.169L77.0947 107.745L76.9355 107.632L76.5244 108.208L76.6836 108.322L76.2725 108.898L76.1133 108.785L75.7021 109.361L75.8613 109.475L75.4502 110.051L75.292 109.938L75.0859 110.226C75.0162 110.323 74.9437 110.419 74.8691 110.512L75.0205 110.633C74.8645 110.827 74.6989 111.009 74.5244 111.18L74.3887 111.041C74.2169 111.209 74.0366 111.366 73.8486 111.511L73.9658 111.663C73.7696 111.814 73.5661 111.953 73.3555 112.078L73.2559 111.912C73.0503 112.034 72.8384 112.145 72.6211 112.241L72.6992 112.419C72.4738 112.519 72.2428 112.605 72.0078 112.678L71.9502 112.493C71.7223 112.564 71.4904 112.621 71.2559 112.664L71.29 112.854C71.0482 112.899 70.8038 112.93 70.5576 112.946L70.5459 112.753C70.4272 112.761 70.3077 112.765 70.1885 112.766L69.8301 112.757L69.8193 112.95C69.5745 112.937 69.3298 112.909 69.0859 112.866L69.1191 112.676C68.8856 112.635 68.6531 112.581 68.4229 112.512L68.3662 112.697C68.1323 112.627 67.901 112.542 67.6729 112.443L67.75 112.266C67.6412 112.218 67.5329 112.168 67.4258 112.114L67.1104 111.954L67.0225 112.128L66.3896 111.809L66.4785 111.635L65.8467 111.315L65.7578 111.489L65.126 111.17L65.2148 110.996L64.582 110.677L64.4941 110.851L63.8623 110.531L63.9502 110.357L63.3184 110.038L63.2305 110.212L62.5986 109.893L62.6865 109.719L62.0547 109.399L61.9668 109.573L61.335 109.254L61.4229 109.08L61.1074 108.921L60.7656 108.761L60.6885 108.939H60.6875C60.4626 108.842 60.2333 108.758 60.001 108.688H60.002L60.0586 108.501C59.8171 108.428 59.5719 108.37 59.3252 108.326L59.291 108.519H59.29C59.0497 108.476 58.8074 108.448 58.5645 108.434H58.5654L58.5771 108.238C58.3262 108.224 58.0742 108.224 57.8232 108.238L57.835 108.434C57.592 108.448 57.3497 108.476 57.1094 108.519L57.0752 108.326C56.8285 108.37 56.5833 108.428 56.3418 108.501L56.3984 108.688C56.1661 108.758 55.9368 108.842 55.7119 108.939L55.6348 108.761L55.293 108.921L54.9775 109.08L55.0645 109.254L54.4326 109.573L54.3457 109.399L53.7139 109.719L53.8008 109.893L53.1689 110.212L53.0811 110.038L52.4492 110.357L52.5371 110.531L51.9053 110.851L51.8174 110.677L51.1855 110.996L51.2734 111.17L50.6406 111.489L50.5537 111.315L49.9219 111.635L50.0088 111.809L49.377 112.128L49.29 111.954L48.9746 112.114C48.8674 112.168 48.7584 112.218 48.6494 112.266L48.7266 112.443C48.4984 112.542 48.2671 112.627 48.0332 112.697L47.9775 112.512C47.7473 112.581 47.5148 112.635 47.2812 112.676L47.3135 112.866C47.0696 112.909 46.8249 112.937 46.5801 112.95L46.5703 112.757C46.4508 112.763 46.3312 112.766 46.2119 112.766L45.8545 112.753L45.8418 112.946C45.5957 112.93 45.3512 112.899 45.1094 112.854L45.1445 112.664C44.9097 112.621 44.6773 112.564 44.4492 112.493L44.3916 112.678C44.1567 112.605 43.9256 112.519 43.7002 112.419L43.7793 112.241C43.562 112.145 43.3501 112.034 43.1445 111.912L43.0439 112.078C42.8333 111.953 42.6298 111.814 42.4336 111.663L42.5518 111.511C42.3638 111.366 42.1836 111.209 42.0117 111.041L41.875 111.18C41.7005 111.009 41.5349 110.827 41.3789 110.633L41.5312 110.512C41.4567 110.419 41.3842 110.323 41.3145 110.226L41.1084 109.938L40.9492 110.051L40.5381 109.475L40.6973 109.361L40.2861 108.785L40.127 108.898L39.7158 108.322L39.875 108.208L39.4639 107.632L39.3057 107.745H39.3047L38.8936 107.169L39.0527 107.056L38.6416 106.479L38.4824 106.593L38.0713 106.017L38.2314 105.902L37.8203 105.326L37.6611 105.439H37.6602L37.249 104.863H37.25L37.4092 104.75L37.2031 104.462L36.9756 104.161L36.8232 104.283C36.6695 104.092 36.5052 103.912 36.332 103.742H36.333L36.4697 103.604C36.2897 103.427 36.0995 103.261 35.9014 103.107L35.7822 103.262C35.589 103.112 35.3874 102.974 35.1787 102.849L35.2793 102.683C35.0639 102.553 34.8413 102.436 34.6123 102.332L34.5322 102.509C34.3102 102.408 34.0816 102.322 33.8486 102.248H33.8496L33.9092 102.062C33.6704 101.987 33.4264 101.924 33.1787 101.876L33.1416 102.067H33.1406C32.9027 102.021 32.6611 101.989 32.417 101.971L32.4316 101.776C32.3069 101.767 32.1815 101.762 32.0557 101.76L31.7012 101.755L31.6982 101.949H31.6973L30.9893 101.938H30.9902L30.9932 101.743L30.2852 101.732L30.2812 101.928L29.5742 101.916L29.5771 101.722L28.8691 101.711L28.8662 101.905L28.1582 101.895L28.1621 101.7L27.4541 101.689L27.4512 101.884L26.7422 101.873H26.7432L26.7461 101.678L26.0381 101.667L26.0352 101.861L25.3271 101.851L25.3301 101.656L24.9756 101.651L24.6182 101.635L24.6035 101.828C24.3553 101.81 24.1109 101.777 23.8711 101.73L23.9092 101.54C23.6732 101.494 23.4415 101.435 23.2158 101.362L23.1562 101.546C22.9206 101.47 22.6907 101.381 22.4678 101.279L22.5488 101.103C22.3312 101.003 22.1201 100.891 21.917 100.767L21.8154 100.933C21.6048 100.804 21.4025 100.663 21.209 100.511L21.3291 100.358C21.1415 100.211 20.9629 100.052 20.7939 99.8838L20.6562 100.021C20.482 99.8467 20.3171 99.6634 20.1641 99.4697L20.3174 99.3496C20.1698 99.1629 20.0325 98.9667 19.9072 98.7627L19.7412 98.8643C19.6129 98.6553 19.4972 98.4377 19.3936 98.2129L19.5703 98.1318C19.4711 97.9166 19.3836 97.6944 19.3096 97.4658L19.124 97.5244C19.0489 97.2922 18.9876 97.0536 18.9395 96.8096L19.1299 96.7725C19.1069 96.656 19.0876 96.5379 19.0713 96.4189L19.0225 96.0684L18.8281 96.0947L18.7324 95.3936H18.7334L18.9268 95.3672L18.8301 94.666L18.6357 94.6924L18.54 93.9912L18.7344 93.9639L18.6387 93.2627L18.4443 93.2881L18.3477 92.5879L18.542 92.5615L18.4463 91.8604L18.2529 91.8867H18.252L18.1562 91.1846L18.3496 91.1582L18.2539 90.457L18.0596 90.4834L17.9639 89.7812L18.1572 89.7559L18.1094 89.4053L18.0479 89.0332L17.8555 89.0703C17.8081 88.8299 17.7462 88.5941 17.6719 88.3633L17.8584 88.3037C17.7811 88.0637 17.69 87.8294 17.5859 87.6016L17.4082 87.6816C17.3068 87.4598 17.1916 87.245 17.0654 87.0371L17.2334 86.9355C17.103 86.7208 16.9602 86.5135 16.8057 86.3154L16.6514 86.4346C16.5016 86.2427 16.3396 86.0603 16.168 85.8867L16.3076 85.749C16.1316 85.5709 15.9449 85.4025 15.748 85.2451L15.626 85.3975H15.625C15.4355 85.2461 15.2364 85.1051 15.0283 84.9756L15.1328 84.8105C15.0265 84.7443 14.9174 84.6804 14.8066 84.6201L14.4961 84.4512L14.4023 84.6221H14.4014L13.7803 84.2832L13.874 84.1123L13.252 83.7734L13.1592 83.9453H13.1582L12.5361 83.6064L12.6309 83.4346L12.0088 83.0967L11.9141 83.2676L11.2939 82.9287L11.3867 82.7578L10.7656 82.4189L10.6719 82.5898L10.0498 82.251L10.1436 82.0801L9.52148 81.7422L9.42773 81.9131L8.80566 81.5742L8.90039 81.4033L8.58887 81.2334L8.2793 81.0537L8.17578 81.2168C7.96489 81.0853 7.7636 80.9436 7.57324 80.791L7.69531 80.6396C7.50788 80.4895 7.33106 80.3291 7.16504 80.1602L7.02637 80.2949C6.85289 80.1183 6.68994 79.9334 6.54004 79.7393L6.69434 79.6211C6.54797 79.4316 6.41327 79.2336 6.29102 79.0293L6.12402 79.1289C5.9973 78.9171 5.88384 78.6982 5.7832 78.4736L5.96094 78.3945C5.8633 78.1767 5.7784 77.9534 5.70703 77.7256L5.52148 77.7832C5.44789 77.5482 5.38734 77.3091 5.3418 77.0664L5.5332 77.0312C5.48927 76.7973 5.45946 76.5601 5.44336 76.3213L5.24902 76.333C5.23261 76.0887 5.23045 75.8426 5.24316 75.5957L5.4375 75.6055C5.4497 75.3688 5.47587 75.1314 5.5166 74.8945L5.32422 74.8613C5.3656 74.6208 5.42241 74.381 5.49316 74.1426L5.67969 74.1973L5.79199 73.8574L5.91211 73.5244L5.72852 73.458L5.72754 73.457L5.96875 72.792L6.15234 72.8584L6.39355 72.1934L6.20996 72.127L6.20898 72.126L6.4502 71.46L6.45117 71.4609L6.63477 71.5273L6.875 70.8613L6.69141 70.7949L6.93164 70.1279L6.93262 70.1289L7.11621 70.1953L7.35742 69.5293L7.17383 69.4629L7.17285 69.4619L7.41406 68.7979L7.59766 68.8643L7.83887 68.1982L7.65527 68.1318L7.6543 68.1309L7.89551 67.4658L8.0791 67.5322L8.2002 67.1992C8.24299 67.0809 8.28179 66.9616 8.31738 66.8418L8.13086 66.7861L8.12988 66.7852C8.19968 66.5501 8.25448 66.3124 8.2959 66.0732L8.29688 66.0742L8.48926 66.1074C8.53229 65.8591 8.56153 65.6094 8.5752 65.3594L8.37988 65.3486L8.37891 65.3477C8.39219 65.1039 8.39215 64.86 8.37695 64.6172L8.57227 64.6055C8.55659 64.3546 8.52626 64.1047 8.48145 63.8574L8.28906 63.8926H8.28809C8.24469 63.6531 8.18747 63.4161 8.11621 63.1826H8.11719L8.30371 63.125C8.23061 62.8855 8.14321 62.6498 8.04199 62.4189L7.8623 62.4971C7.76494 62.2751 7.65416 62.058 7.53027 61.8467L7.69922 61.7471C7.63592 61.6391 7.56898 61.5325 7.49902 61.4277L7.30273 61.1338L7.14062 61.2412L6.74707 60.6523L6.90918 60.5449L6.5166 59.9561L6.35352 60.0635L5.96094 59.4746L6.12305 59.3672L5.72949 58.7783L5.56738 58.8857L5.17383 58.2969L5.33691 58.1895L4.94336 57.6006L4.78027 57.709L4.3877 57.1191L4.55078 57.0117L4.15723 56.4229L3.99414 56.5312L3.60156 55.9424L3.76367 55.834L3.56738 55.54L3.37695 55.2363L3.20996 55.334C3.08402 55.1191 2.9709 54.8998 2.87305 54.6758L3.05273 54.5986C2.95647 54.3783 2.87418 54.1538 2.80566 53.9268L2.61914 53.9824C2.54759 53.7452 2.48979 53.5054 2.44727 53.2637L2.63965 53.2314C2.59812 52.9957 2.57095 52.7581 2.55762 52.5205L2.3623 52.5303C2.34855 52.2843 2.35005 52.0381 2.36523 51.793L2.55957 51.8047C2.57435 51.5664 2.60283 51.3287 2.64551 51.0938L2.4541 51.0596C2.49692 50.8239 2.55234 50.5902 2.62207 50.3604L2.62793 50.3418L2.81543 50.3984C2.88522 50.171 2.96874 49.9474 3.06543 49.7285L2.88672 49.6494C2.98596 49.4248 3.09921 49.2055 3.22559 48.9922L3.39258 49.0918C3.51339 48.8879 3.64683 48.6898 3.79297 48.499L3.63867 48.3799C3.78706 48.1862 3.94869 48.0004 4.12207 47.8223L4.26074 47.958L4.51855 47.708L4.7793 47.4697L4.64746 47.3252L5.1709 46.8477L5.30273 46.9922L5.8252 46.5146L5.69336 46.3701L6.21582 45.8926L6.34766 46.0371L6.87012 45.5596L6.73828 45.415L7.26074 44.9365L7.26172 44.9375L7.39258 45.082L7.91602 44.6045L7.78418 44.46L7.7832 44.459L8.30566 43.9814L8.30664 43.9824L8.43848 44.127L8.96094 43.6484L8.8291 43.5049L8.82812 43.5039L9.35059 43.0264L9.35156 43.0273L9.4834 43.1709L9.74512 42.9326C9.83819 42.8476 9.92826 42.7597 10.0156 42.6699L9.87598 42.5342L9.875 42.5332C9.96238 42.4435 10.0475 42.3521 10.1289 42.2578L10.3535 41.9814L10.5088 42.1006C10.6623 41.9007 10.8034 41.6925 10.9316 41.4775L10.7646 41.377L10.7637 41.376C10.8888 41.1662 11.0011 40.9497 11.1006 40.7275L11.1016 40.7285L11.2793 40.8086C11.382 40.5792 11.4716 40.3434 11.5469 40.1035L11.3604 40.0459L11.3594 40.0449C11.4323 39.8126 11.4917 39.576 11.5371 39.3359L11.5381 39.3369L11.7305 39.373C11.777 39.127 11.8085 38.8775 11.8262 38.626L11.6318 38.6123L11.6309 38.6113C11.6478 38.3697 11.6511 38.1263 11.6396 37.8818L11.835 37.8721C11.8291 37.747 11.8199 37.6214 11.8066 37.4961L11.7695 37.1445L11.5742 37.165L11.5 36.4609L11.6943 36.4404L11.6201 35.7363L11.4258 35.7559L11.3506 35.0527L11.5459 35.0322L11.4717 34.3281L11.2764 34.3486L11.2021 33.6436L11.3965 33.624L11.3223 32.9199L11.1279 32.9395L11.0527 32.2363L11.248 32.2158L11.1729 31.5117L10.9795 31.5322H10.9785L10.9043 30.8271L11.0986 30.8076L11.0615 30.4561L11.0342 30.0986L10.8398 30.1064C10.8283 29.8584 10.8313 29.6123 10.8486 29.3691L11.043 29.3828C11.0601 29.1432 11.091 28.9065 11.1357 28.6738L10.9453 28.6367C10.9921 28.3936 11.0524 28.1545 11.127 27.9209L11.3125 27.9805C11.3853 27.7524 11.4717 27.5291 11.5703 27.3125L11.3926 27.2314C11.4949 27.0067 11.6106 26.7886 11.7383 26.5781L11.9053 26.6797C12.0291 26.4756 12.1646 26.2789 12.3115 26.0908L12.1572 25.9707C12.3087 25.7767 12.4717 25.5913 12.6455 25.416L12.7842 25.5537C12.9517 25.3847 13.13 25.2251 13.3174 25.0762L13.1963 24.9229C13.3882 24.7703 13.5901 24.629 13.8008 24.499L13.9033 24.665C14.1051 24.5406 14.3152 24.4272 14.5332 24.3262L14.4512 24.1484C14.6727 24.0458 14.9023 23.9561 15.1387 23.8789L15.1992 24.0645L15.543 23.9629L15.8857 23.873L15.8359 23.6846L15.835 23.6836L16.5205 23.5039L16.5703 23.6934L17.2549 23.5127L17.2051 23.3242L17.8896 23.1445L17.9395 23.333L18.624 23.1533L18.5742 22.9639L19.2598 22.7842L19.3096 22.9727L19.9941 22.793L19.9443 22.6045L19.9434 22.6035L20.6289 22.4238L20.6787 22.6133L21.3633 22.4326L21.3135 22.2441L21.998 22.0645L22.0479 22.2529L22.3906 22.1631C22.5125 22.131 22.633 22.0955 22.752 22.0566L22.6914 21.8711L22.6904 21.8701C22.9235 21.7941 23.1508 21.7052 23.3711 21.6035L23.3721 21.6045L23.4531 21.7812C23.6821 21.6755 23.9045 21.5567 24.1182 21.4258L24.0156 21.2598L24.0146 21.2588C24.1207 21.1938 24.2253 21.1267 24.3271 21.0557L24.6152 20.8418L24.7363 20.9951C24.9338 20.8397 25.1227 20.6734 25.3008 20.4961L25.1631 20.3574L25.1621 20.3564C25.3325 20.1867 25.4944 20.0082 25.6445 19.8193L25.6494 19.8125L25.8027 19.9336C25.9583 19.7374 26.1029 19.5318 26.2354 19.3174L26.0693 19.2148L26.0684 19.2139C26.1949 19.009 26.3111 18.7966 26.4141 18.5762L26.416 18.5713L26.5928 18.6543L26.7422 18.3076L26.873 17.9785L26.6914 17.9062L26.6904 17.9053L26.9512 17.248L26.9521 17.249L27.1338 17.3203L27.3955 16.6631L27.2139 16.5908L27.2129 16.5898L27.4746 15.9326L27.6562 16.0049L27.918 15.3467L27.7363 15.2744L27.7354 15.2734L27.9971 14.6162L28.1787 14.6885L28.4404 14.0303L28.2588 13.958L28.2578 13.957L28.5195 13.2998L28.7012 13.3721L28.9629 12.7139L28.7812 12.6426L28.7803 12.6416L29.042 11.9844L29.2236 12.0566L29.3545 11.7275C29.3988 11.616 29.4459 11.506 29.4961 11.3984L29.3203 11.3154C29.3894 11.1673 29.4626 11.0223 29.542 10.8818L29.6709 10.666L29.8369 10.7686C29.9635 10.5643 30.1012 10.3689 30.249 10.1836L30.0967 10.0625C30.2513 9.86879 30.416 9.68507 30.5908 9.5127L30.7275 9.65234C30.8979 9.48426 31.0777 9.32661 31.2656 9.18066L31.1465 9.02637L31.1455 9.02539C31.3402 8.87424 31.5444 8.73624 31.7549 8.60938L31.8564 8.77539C32.0608 8.65228 32.2728 8.54161 32.4902 8.44336L32.4092 8.26562C32.6275 8.16696 32.8513 8.08004 33.0801 8.00684L33.0996 8.00098L33.1582 8.1875C33.3852 8.11568 33.6173 8.05649 33.8525 8.01172L33.8154 7.82031C34.0563 7.77445 34.3009 7.74373 34.5479 7.72656L34.5615 7.91992C34.7981 7.90349 35.0372 7.90119 35.2773 7.91309L35.2861 7.71875C35.5301 7.73081 35.7752 7.75732 36.0205 7.79883L35.9883 7.99121L36.3398 8.06055L36.6846 8.14062L36.7285 7.9502V7.94922L37.418 8.1084H37.4189L37.375 8.29883L38.0645 8.45801L38.1084 8.26758V8.2666L38.7988 8.42578V8.42676L38.7549 8.61719L39.4443 8.77539L39.4873 8.58496Z" stroke="#232229" stroke-width="0.390605" stroke-dasharray="0.78 0.78"/>
</svg>
